<svg xmlns="http://www.w3.org/2000/svg" width="87" height="30" viewBox="0 0 87 30" fill="none"><path d="M81.0983 29.5907H76.2893C76.1938 29.5907 76.146 29.5362 76.146 29.427L76.1869 17.5171L70.5798 0.593459C70.5526 0.484319 70.5935 0.429749 70.7026 0.429749H75.3684C75.5048 0.429749 75.5867 0.484319 75.6139 0.593459L78.704 11.869L81.8554 0.593459C81.8827 0.484319 81.9509 0.429749 82.0601 0.429749H86.7667C86.8759 0.429749 86.9168 0.484319 86.8895 0.593459L81.221 17.3534L81.262 29.427C81.262 29.5362 81.2074 29.5907 81.0983 29.5907Z" fill="white"></path><path d="M61.2279 30C59.7408 30 58.3697 29.618 57.1146 28.854C55.8731 28.09 54.8772 27.0737 54.1269 25.8049C53.3902 24.5225 53.0219 23.1173 53.0219 21.5894V19.6658C53.0219 19.5157 53.0901 19.4407 53.2265 19.4407H57.9332C58.0423 19.4407 58.0969 19.5157 58.0969 19.6658V21.5894C58.0969 22.5034 58.4038 23.2947 59.0178 23.9632C59.6317 24.618 60.3684 24.9454 61.2279 24.9454C62.101 24.9454 62.8445 24.6112 63.4584 23.9427C64.0723 23.2606 64.3793 22.4761 64.3793 21.5894C64.3793 20.5662 63.7108 19.6726 62.3738 18.9086C62.1555 18.7722 61.8691 18.6085 61.5143 18.4175C61.1733 18.2128 60.764 17.9809 60.2865 17.7217C59.809 17.4625 59.3452 17.2101 58.895 16.9645C58.4448 16.7053 58.0082 16.4598 57.5853 16.2278C56.0573 15.3274 54.9182 14.2019 54.1678 12.8513C53.4311 11.487 53.0628 9.95907 53.0628 8.26739C53.0628 6.71214 53.4448 5.30696 54.2088 4.05184C54.9727 2.81037 55.9686 1.8281 57.1965 1.10505C58.4379 0.368349 59.7817 0 61.2279 0C62.7149 0 64.0791 0.368349 65.3206 1.10505C66.5621 1.85539 67.5512 2.8513 68.2879 4.09277C69.0382 5.33424 69.4134 6.72578 69.4134 8.26739V11.7053C69.4134 11.8145 69.3588 11.869 69.2497 11.869H64.543C64.4339 11.869 64.3793 11.8145 64.3793 11.7053L64.3384 8.26739C64.3384 7.28513 64.0314 6.48704 63.4175 5.87312C62.8036 5.25921 62.0737 4.95225 61.2279 4.95225C60.3684 4.95225 59.6317 5.27967 59.0178 5.93452C58.4038 6.58936 58.0969 7.36698 58.0969 8.26739C58.0969 9.18145 58.2879 9.94543 58.6699 10.5593C59.0655 11.1733 59.7817 11.7599 60.8186 12.3192C60.9277 12.3738 61.1801 12.5102 61.5757 12.7285C61.9714 12.9468 62.4079 13.1924 62.8854 13.4652C63.3766 13.7244 63.8199 13.9632 64.2156 14.1814C64.6112 14.3861 64.85 14.5089 64.9318 14.5498C66.3234 15.3274 67.4216 16.2824 68.2265 17.4147C69.045 18.5471 69.4543 19.9386 69.4543 21.5894C69.4543 23.1855 69.086 24.618 68.3493 25.8868C67.5989 27.1555 66.603 28.1583 65.3616 28.895C64.1201 29.6316 62.7422 30 61.2279 30Z" fill="white"></path><path d="M46.2688 29.5907H41.5417C41.4189 29.5907 41.3575 29.5225 41.3575 29.3861V5.48432H35.9141C35.7777 5.48432 35.7095 5.41611 35.7095 5.27968L35.7504 0.593459C35.7504 0.484319 35.805 0.429749 35.9141 0.429749H51.835C51.9851 0.429749 52.0601 0.484319 52.0601 0.593459V5.27968C52.0601 5.41611 52.0055 5.48432 51.8964 5.48432H46.3916L46.4325 29.3861C46.4325 29.5225 46.378 29.5907 46.2688 29.5907Z" fill="white"></path><path d="M18.0286 29.3861L23.2264 0.593459C23.2537 0.484319 23.3219 0.429749 23.4311 0.429749H29.5088C29.618 0.429749 29.6862 0.484319 29.7135 0.593459L34.7067 29.3861C34.7203 29.5225 34.6657 29.5907 34.5429 29.5907H29.8977C29.7612 29.5907 29.6862 29.5225 29.6726 29.3861L29.2223 26.3165H23.5129L23.0627 29.3861C23.0491 29.5225 22.9809 29.5907 22.8581 29.5907H18.1923C18.0832 29.5907 18.0286 29.5225 18.0286 29.3861ZM26.6644 10.0682L26.4188 8.51297L26.2346 10.0682L24.352 21.8349H28.3833L26.6644 10.0682Z" fill="white"></path><path d="M4.56344 29.5907H0.368349C0.150068 29.5907 0.0409277 29.4952 0.0409277 29.3042L0 0.75717C0 0.538889 0.109141 0.429749 0.327422 0.429749H4.11323L11.1937 16.9441L10.9891 0.75717C10.9891 0.538889 11.1119 0.429749 11.3574 0.429749H15.5116C15.6753 0.429749 15.7572 0.538889 15.7572 0.75717L15.7981 29.3452C15.7981 29.5089 15.7299 29.5907 15.5935 29.5907H11.91L4.64529 14.161L4.95225 29.2633C4.95225 29.4816 4.82265 29.5907 4.56344 29.5907Z" fill="white"></path></svg>